<svg xmlns="http://www.w3.org/2000/svg" xmlns:xlink="http://www.w3.org/1999/xlink" width="50.238" height="76.52" viewBox="0 0 50.238 76.52">
  <defs>
    <clipPath id="clip-path">
      <rect id="Rectangle_508" data-name="Rectangle 508" width="50.238" height="76.52" transform="translate(70 -0.184)" fill="none"/>
    </clipPath>
  </defs>
  <g id="Group_614" data-name="Group 614" transform="translate(-70 0.184)">
    <rect id="Rectangle_507" data-name="Rectangle 507" width="50.238" height="76.52" transform="translate(70 -0.184)" fill="#ff4425"/>
    <g id="Group_611" data-name="Group 611">
      <g id="Group_610" data-name="Group 610" clip-path="url(#clip-path)">
        <path id="Path_318" data-name="Path 318" d="M86.551,42.692l-.057.245a5.276,5.276,0,0,1-.565.2,1.469,1.469,0,0,1-.361.056.613.613,0,0,1-.461-.16.538.538,0,0,1-.154-.392,1.287,1.287,0,0,1,.015-.186c.011-.068.028-.148.051-.239l.377-1.43c.029-.11.051-.21.068-.3a1.208,1.208,0,0,0,.025-.215.668.668,0,0,0-.111-.406.4.4,0,0,0-.35-.149,1.132,1.132,0,0,0-.5.12,2.1,2.1,0,0,0-.554.45l-.671,2.84H82.59l.6-2.559c.013-.057.025-.117.036-.179a.813.813,0,0,0,.018-.14.569.569,0,0,0-.125-.391.456.456,0,0,0-.363-.141,1.257,1.257,0,0,0-.479.109,1.917,1.917,0,0,0-.609.488l-.653,2.813H80.3l.575-2.483c.02-.089.04-.185.059-.288a1.378,1.378,0,0,0,.029-.26.416.416,0,0,0-.073-.293.421.421,0,0,0-.285-.071.985.985,0,0,0-.217.032c-.089.021-.157.039-.206.052l.058-.247a3.846,3.846,0,0,1,.531-.2,1.473,1.473,0,0,1,.4-.066.521.521,0,0,1,.437.167.758.758,0,0,1,.136.454h.023a5.245,5.245,0,0,1,.742-.51,1.466,1.466,0,0,1,.692-.153.779.779,0,0,1,.552.2.742.742,0,0,1,.239.5h.016a4.814,4.814,0,0,1,.726-.518,1.513,1.513,0,0,1,.742-.176.726.726,0,0,1,.562.213.79.79,0,0,1,.2.558c0,.045-.007.127-.021.245a2.5,2.5,0,0,1-.067.349l-.322,1.229c-.023.083-.045.176-.066.282a1.436,1.436,0,0,0-.03.247.377.377,0,0,0,.092.3.476.476,0,0,0,.31.078,1.759,1.759,0,0,0,.211-.018,1.07,1.07,0,0,0,.211-.046" fill="#fff"/>
        <path id="Path_319" data-name="Path 319" d="M89.99,40.2a1.062,1.062,0,0,0-.027-.242.506.506,0,0,0-.111-.214.524.524,0,0,0-.211-.154.86.86,0,0,0-.336-.057.937.937,0,0,0-.544.184,1.876,1.876,0,0,0-.476.494,2.579,2.579,0,0,0-.325.706,2.865,2.865,0,0,0-.127.839,2.985,2.985,0,0,0,.027.414,1.093,1.093,0,0,0,.1.329.526.526,0,0,0,.209.226.68.68,0,0,0,.349.081.991.991,0,0,0,.449-.12,2.209,2.209,0,0,0,.529-.424Zm-.552,2.421h-.026c-.057.046-.123.1-.2.175a1.85,1.85,0,0,1-.274.2,1.9,1.9,0,0,1-.324.167,1.023,1.023,0,0,1-.383.071,1.046,1.046,0,0,1-.869-.4,1.7,1.7,0,0,1-.316-1.088,2.515,2.515,0,0,1,.176-.924,2.738,2.738,0,0,1,.486-.8,2.317,2.317,0,0,1,.7-.55,1.8,1.8,0,0,1,.834-.209,1.873,1.873,0,0,1,.518.072,1.538,1.538,0,0,1,.389.166l.7-.18.047.057-.584,2.472c-.02.079-.041.175-.063.289a1.489,1.489,0,0,0-.033.251.378.378,0,0,0,.092.3.5.5,0,0,0,.311.076,1.363,1.363,0,0,0,.207-.023,1.257,1.257,0,0,0,.207-.05l-.058.245c-.229.092-.4.158-.513.2a1.238,1.238,0,0,1-.411.06.591.591,0,0,1-.437-.16.612.612,0,0,1-.177-.411" fill="#fff"/>
        <path id="Path_320" data-name="Path 320" d="M94.491,40.158a.824.824,0,0,0-.032-.22.527.527,0,0,0-.12-.209.591.591,0,0,0-.215-.145.869.869,0,0,0-.332-.054.969.969,0,0,0-.556.178,1.815,1.815,0,0,0-.473.489,2.611,2.611,0,0,0-.317.705,2.94,2.94,0,0,0-.122.832,2.535,2.535,0,0,0,.032.415,1.039,1.039,0,0,0,.113.332.593.593,0,0,0,.213.22.657.657,0,0,0,.343.079,1.04,1.04,0,0,0,.531-.155,2.458,2.458,0,0,0,.5-.4Zm-.509,2.449-.027-.007-.216.172a2.13,2.13,0,0,1-.293.195,2.221,2.221,0,0,1-.357.169,1.168,1.168,0,0,1-.4.065,1.014,1.014,0,0,1-.856-.393,1.743,1.743,0,0,1-.3-1.082,2.535,2.535,0,0,1,.175-.924,2.709,2.709,0,0,1,.476-.8,2.263,2.263,0,0,1,.7-.542,1.892,1.892,0,0,1,1.37-.134,1.506,1.506,0,0,1,.4.167l.7-.18.046.057-.642,3.019a5.185,5.185,0,0,1-.374,1.158,2.454,2.454,0,0,1-.526.75,1.83,1.83,0,0,1-.676.4,2.7,2.7,0,0,1-.836.12,2.236,2.236,0,0,1-.519-.049.966.966,0,0,1-.316-.131.418.418,0,0,1-.155-.182.513.513,0,0,1-.04-.193.42.42,0,0,1,.1-.289.358.358,0,0,1,.284-.116.364.364,0,0,1,.24.082.8.8,0,0,1,.161.177,1.682,1.682,0,0,1,.126.238c.041.092.072.161.093.206h.114a1.223,1.223,0,0,0,.452-.1,1.2,1.2,0,0,0,.44-.31,2.4,2.4,0,0,0,.379-.595,3.824,3.824,0,0,0,.28-.96" fill="#fff"/>
        <path id="Path_321" data-name="Path 321" d="M98.139,37.811a.558.558,0,0,1-.142.381.449.449,0,0,1-.352.162.443.443,0,0,1-.337-.154.514.514,0,0,1-.141-.355.532.532,0,0,1,.141-.367.439.439,0,0,1,.337-.157.467.467,0,0,1,.357.147.492.492,0,0,1,.137.343m-.272,4.9-.057.245a4.984,4.984,0,0,1-.563.2,1.455,1.455,0,0,1-.36.056.609.609,0,0,1-.459-.159.545.545,0,0,1-.153-.393,1.189,1.189,0,0,1,.015-.184c.01-.064.027-.145.05-.241l.4-1.629q.03-.134.06-.288a1.467,1.467,0,0,0,.029-.26.287.287,0,0,0-.36-.357,1.254,1.254,0,0,0-.224.027c-.093.018-.163.034-.212.046l.058-.245a3.8,3.8,0,0,1,.536-.2A1.481,1.481,0,0,1,97,39.258a.6.6,0,0,1,.456.15.56.56,0,0,1,.141.4,1.587,1.587,0,0,1-.015.188,2.02,2.02,0,0,1-.046.237l-.407,1.629c-.025.1-.047.2-.066.293a1.277,1.277,0,0,0-.029.236.378.378,0,0,0,.1.3.493.493,0,0,0,.316.08,1.559,1.559,0,0,0,.207-.019,1.048,1.048,0,0,0,.208-.046" fill="#fff"/>
        <path id="Path_322" data-name="Path 322" d="M101.3,40.2a1.009,1.009,0,0,0-.027-.242.516.516,0,0,0-.11-.214.535.535,0,0,0-.212-.154.86.86,0,0,0-.336-.057.937.937,0,0,0-.544.184,1.873,1.873,0,0,0-.475.494,2.55,2.55,0,0,0-.326.706,2.865,2.865,0,0,0-.127.839,2.985,2.985,0,0,0,.027.414,1.093,1.093,0,0,0,.1.329.528.528,0,0,0,.21.226.676.676,0,0,0,.348.081.991.991,0,0,0,.449-.12,2.209,2.209,0,0,0,.529-.424Zm-.552,2.421h-.026c-.057.046-.123.1-.2.175a1.894,1.894,0,0,1-.273.2,1.948,1.948,0,0,1-.325.167,1.02,1.02,0,0,1-.383.071,1.046,1.046,0,0,1-.869-.4,1.7,1.7,0,0,1-.316-1.088,2.515,2.515,0,0,1,.176-.924,2.738,2.738,0,0,1,.486-.8,2.317,2.317,0,0,1,.7-.55,1.8,1.8,0,0,1,.834-.209,1.886,1.886,0,0,1,.519.072,1.546,1.546,0,0,1,.388.166l.7-.18.047.057-.584,2.472c-.02.079-.041.175-.063.289a1.49,1.49,0,0,0-.033.251.374.374,0,0,0,.093.3.494.494,0,0,0,.31.076,1.35,1.35,0,0,0,.207-.023,1.257,1.257,0,0,0,.207-.05l-.058.245c-.229.092-.4.158-.513.2a1.238,1.238,0,0,1-.411.06.591.591,0,0,1-.437-.16.616.616,0,0,1-.177-.411" fill="#fff"/>
        <path id="Path_323" data-name="Path 323" d="M83.167,48.608a2.363,2.363,0,0,0-.036-.409.983.983,0,0,0-.122-.342.63.63,0,0,0-.241-.231.781.781,0,0,0-.379-.084.711.711,0,0,0-.254.046,1.658,1.658,0,0,0-.246.123,1.483,1.483,0,0,0-.217.167c-.07.065-.134.123-.193.174l-.509,2.273a.422.422,0,0,0,.069.168.591.591,0,0,0,.146.162.756.756,0,0,0,.241.133.9.9,0,0,0,.295.047,1.008,1.008,0,0,0,.57-.179,1.59,1.59,0,0,0,.458-.481,2.5,2.5,0,0,0,.314-.735,3.316,3.316,0,0,0,.1-.832m.789-.019a2.707,2.707,0,0,1-.671,1.778,2.384,2.384,0,0,1-.7.542,1.8,1.8,0,0,1-.827.2,2.714,2.714,0,0,1-.58-.055,1.638,1.638,0,0,1-.427-.151,1.262,1.262,0,0,1-.3-.224,1.766,1.766,0,0,1-.215-.279l.987-4.336c.013-.058.024-.109.033-.151a.614.614,0,0,0,.013-.129.4.4,0,0,0-.046-.212.294.294,0,0,0-.13-.113.693.693,0,0,0-.2-.046c-.082-.007-.165-.017-.249-.027l.053-.233,1.414-.085.038.058-.579,2.542h.016a2.489,2.489,0,0,1,.608-.423,1.254,1.254,0,0,1,.512-.117,1.131,1.131,0,0,1,.916.4,1.606,1.606,0,0,1,.334,1.067" fill="#fff"/>
        <path id="Path_324" data-name="Path 324" d="M87.876,47.749a.987.987,0,0,1-.031.235.654.654,0,0,1-.088.213.579.579,0,0,1-.151.159.422.422,0,0,1-.236.055.418.418,0,0,1-.309-.1.318.318,0,0,1-.1-.23.746.746,0,0,1,.057-.266c.039-.1.078-.195.119-.293a.817.817,0,0,0-.152.025,1.346,1.346,0,0,0-.253.1,2.086,2.086,0,0,0-.338.218,2.968,2.968,0,0,0-.4.388l-.617,2.744h-.714l.558-2.484c.013-.061.031-.153.055-.276a1.579,1.579,0,0,0,.036-.272.416.416,0,0,0-.072-.287.42.42,0,0,0-.291-.073.983.983,0,0,0-.214.029c-.087.019-.155.034-.2.047l.058-.245a4.072,4.072,0,0,1,.527-.2,1.507,1.507,0,0,1,.395-.065.517.517,0,0,1,.436.167.8.8,0,0,1,.131.5H86.1a7.938,7.938,0,0,1,.692-.552.871.871,0,0,1,.492-.157.9.9,0,0,1,.237.031.452.452,0,0,1,.195.1.483.483,0,0,1,.124.186.884.884,0,0,1,.041.3" fill="#fff"/>
        <path id="Path_325" data-name="Path 325" d="M91.054,48.064a1.047,1.047,0,0,0-.027-.241.519.519,0,0,0-.11-.215.545.545,0,0,0-.212-.154.863.863,0,0,0-.336-.057.937.937,0,0,0-.544.184,1.862,1.862,0,0,0-.475.495,2.53,2.53,0,0,0-.326.7,2.865,2.865,0,0,0-.127.839,2.973,2.973,0,0,0,.027.414,1.092,1.092,0,0,0,.1.329.516.516,0,0,0,.21.226.674.674,0,0,0,.348.081.984.984,0,0,0,.448-.12,2.192,2.192,0,0,0,.53-.424ZM90.5,50.486h-.026c-.057.045-.123.1-.2.174a1.782,1.782,0,0,1-.274.2,1.9,1.9,0,0,1-.324.167,1.023,1.023,0,0,1-.383.071,1.046,1.046,0,0,1-.869-.4,1.7,1.7,0,0,1-.316-1.088,2.515,2.515,0,0,1,.176-.924,2.738,2.738,0,0,1,.486-.8,2.3,2.3,0,0,1,.7-.55,1.808,1.808,0,0,1,.834-.209,1.837,1.837,0,0,1,.518.073,1.541,1.541,0,0,1,.389.165l.7-.18.047.057-.584,2.472c-.02.079-.041.176-.063.289a1.49,1.49,0,0,0-.033.251.378.378,0,0,0,.092.3.5.5,0,0,0,.311.076,1.362,1.362,0,0,0,.207-.023,1.257,1.257,0,0,0,.207-.05l-.058.245c-.229.092-.4.159-.513.2a1.238,1.238,0,0,1-.411.06.591.591,0,0,1-.437-.16.612.612,0,0,1-.177-.41" fill="#fff"/>
        <path id="Path_326" data-name="Path 326" d="M96.73,50.547l-.057.245c-.231.092-.411.16-.538.2a1.209,1.209,0,0,1-.388.064.612.612,0,0,1-.461-.159.542.542,0,0,1-.154-.393,1.287,1.287,0,0,1,.015-.186c.011-.068.027-.148.05-.24l.378-1.429c.029-.11.051-.21.068-.3a1.2,1.2,0,0,0,.025-.215.626.626,0,0,0-.122-.406.439.439,0,0,0-.361-.149,1.122,1.122,0,0,0-.52.154,1.877,1.877,0,0,0-.543.444l-.654,2.812h-.716l.575-2.483c.012-.061.031-.15.055-.266a1.477,1.477,0,0,0,.036-.282.42.42,0,0,0-.072-.288.429.429,0,0,0-.293-.072.991.991,0,0,0-.215.029c-.087.018-.155.035-.2.047l.058-.245a4.1,4.1,0,0,1,.531-.2,1.514,1.514,0,0,1,.4-.065.522.522,0,0,1,.435.165.756.756,0,0,1,.139.456h.022a4.866,4.866,0,0,1,.725-.5,1.457,1.457,0,0,1,.694-.163.722.722,0,0,1,.778.77q0,.069-.021.246a2.5,2.5,0,0,1-.067.349L96,49.719c-.023.083-.046.176-.068.282a1.294,1.294,0,0,0-.032.247.369.369,0,0,0,.1.3.5.5,0,0,0,.315.079,1.2,1.2,0,0,0,.208-.025,1.257,1.257,0,0,0,.209-.052" fill="#fff"/>
        <path id="Path_327" data-name="Path 327" d="M100.2,48.026a.6.6,0,0,0-.058-.217.766.766,0,0,0-.126-.19.708.708,0,0,0-.228-.159.8.8,0,0,0-.331-.063.958.958,0,0,0-.559.184,1.781,1.781,0,0,0-.461.49,2.531,2.531,0,0,0-.306.712,3.1,3.1,0,0,0-.116.833,2.819,2.819,0,0,0,.027.414,1.135,1.135,0,0,0,.1.333.548.548,0,0,0,.208.224.659.659,0,0,0,.355.083,1.017,1.017,0,0,0,.458-.126,2.252,2.252,0,0,0,.549-.441Zm-.545,2.441h-.027l-.218.189a1.919,1.919,0,0,1-.279.205,2.144,2.144,0,0,1-.339.177A1.162,1.162,0,0,1,97.54,50.7a1.716,1.716,0,0,1-.316-1.091,2.589,2.589,0,0,1,.17-.931,2.739,2.739,0,0,1,.466-.8,2.242,2.242,0,0,1,.691-.546,1.817,1.817,0,0,1,.844-.209,2.035,2.035,0,0,1,.525.069,1.7,1.7,0,0,1,.429.169l.3-1.3c.015-.069.026-.123.033-.161a.812.812,0,0,0,.009-.126.345.345,0,0,0-.055-.211.322.322,0,0,0-.156-.107.9.9,0,0,0-.252-.046c-.107-.008-.2-.016-.291-.027l.053-.233,1.551-.084.038.057-1.062,4.59c-.02.084-.041.181-.063.289a1.353,1.353,0,0,0-.033.247.382.382,0,0,0,.092.3.49.49,0,0,0,.31.078,1.35,1.35,0,0,0,.207-.023,1.422,1.422,0,0,0,.207-.049l-.058.245a3.818,3.818,0,0,1-.533.2,1.467,1.467,0,0,1-.391.057.643.643,0,0,1-.439-.143.564.564,0,0,1-.163-.446" fill="#fff"/>
        <path id="Path_328" data-name="Path 328" d="M83.054,55.7a.527.527,0,0,0-.043-.235.3.3,0,0,0-.107-.127.353.353,0,0,0-.146-.058,1.135,1.135,0,0,0-.156-.011,1.086,1.086,0,0,0-.848.5,2.6,2.6,0,0,0-.492,1.257q.267-.039.6-.109a2.188,2.188,0,0,0,.559-.186,1.134,1.134,0,0,0,.473-.422,1.17,1.17,0,0,0,.155-.613m.7.094a1.022,1.022,0,0,1-.255.7,1.716,1.716,0,0,1-.741.464,5.5,5.5,0,0,1-.719.211q-.364.081-.8.134a1.605,1.605,0,0,0,.224.925.751.751,0,0,0,.656.32,1.211,1.211,0,0,0,.677-.192,2.336,2.336,0,0,0,.575-.57l.218.161a2.4,2.4,0,0,1-.765.746,1.813,1.813,0,0,1-.953.279,1.356,1.356,0,0,1-1.036-.379,1.505,1.505,0,0,1-.358-1.076,2.834,2.834,0,0,1,.151-.922,2.687,2.687,0,0,1,.443-.8,2.181,2.181,0,0,1,.695-.575A1.913,1.913,0,0,1,82.675,55a1.249,1.249,0,0,1,.817.224.719.719,0,0,1,.266.573" fill="#fff"/>
        <path id="Path_329" data-name="Path 329" d="M88,55.425a.371.371,0,0,1-.162.327.619.619,0,0,1-.347.106.98.98,0,0,1-.26-.041c-.1-.026-.174-.049-.23-.067a3.346,3.346,0,0,0-.4.452,5.707,5.707,0,0,0-.43.658q.091.365.164.623c.048.172.1.344.157.519a.823.823,0,0,0,.228.373.585.585,0,0,0,.408.139,1.593,1.593,0,0,0,.252-.026,1.45,1.45,0,0,0,.249-.058l-.069.255a4.116,4.116,0,0,1-.553.2,1.643,1.643,0,0,1-.4.047.754.754,0,0,1-.442-.123.907.907,0,0,1-.282-.506c-.051-.185-.092-.342-.124-.468s-.063-.253-.094-.377c-.118.176-.214.326-.291.449a5.24,5.24,0,0,1-.383.512,1.812,1.812,0,0,1-.429.4.767.767,0,0,1-.4.118.425.425,0,0,1-.3-.1.375.375,0,0,1-.117-.293.4.4,0,0,1,.138-.308.531.531,0,0,1,.378-.128.675.675,0,0,1,.239.044c.078.029.16.056.243.082a4.766,4.766,0,0,0,.385-.429,4.521,4.521,0,0,0,.446-.662c-.048-.181-.1-.38-.158-.6s-.112-.407-.162-.571a.76.76,0,0,0-.23-.4.589.589,0,0,0-.333-.087.964.964,0,0,0-.236.031c-.083.02-.16.04-.231.061l.073-.254c.195-.083.373-.15.529-.2a1.3,1.3,0,0,1,.32-.079.722.722,0,0,1,.438.128.91.91,0,0,1,.278.5q.118.425.139.519c.015.062.042.185.083.369q.183-.283.3-.478a4.356,4.356,0,0,1,.375-.517,1.574,1.574,0,0,1,.446-.415.805.805,0,0,1,.392-.114.406.406,0,0,1,.286.11.355.355,0,0,1,.112.281" fill="#fff"/>
        <path id="Path_330" data-name="Path 330" d="M90.91,58.046a2.581,2.581,0,0,0,.3-.714,3.341,3.341,0,0,0,.106-.849,2.365,2.365,0,0,0-.037-.409.979.979,0,0,0-.117-.338.6.6,0,0,0-.229-.233.783.783,0,0,0-.383-.082.876.876,0,0,0-.388.107,2.334,2.334,0,0,0-.519.4L89.154,58.1a.655.655,0,0,0,.235.408.724.724,0,0,0,.5.19,1,1,0,0,0,.566-.177,1.543,1.543,0,0,0,.452-.479M92.1,56.464a2.648,2.648,0,0,1-.181.973,2.61,2.61,0,0,1-.478.8,2.22,2.22,0,0,1-.72.552,1.878,1.878,0,0,1-.8.18,1.515,1.515,0,0,1-.539-.081,1.588,1.588,0,0,1-.375-.2l-.224,1c-.015.063-.027.123-.037.179A1.052,1.052,0,0,0,88.74,60a.2.2,0,0,0,.075.165.464.464,0,0,0,.171.088,1.138,1.138,0,0,0,.213.046c.08.01.152.018.215.023l-.053.241H87.249l.053-.241c.083-.005.159-.012.231-.019a1.4,1.4,0,0,0,.2-.038.357.357,0,0,0,.189-.129.609.609,0,0,0,.1-.232l.8-3.524c.02-.1.039-.195.057-.293a1.446,1.446,0,0,0,.026-.255.437.437,0,0,0-.067-.287.4.4,0,0,0-.288-.074.909.909,0,0,0-.214.033l-.2.052.058-.245a4.475,4.475,0,0,1,.524-.2,1.426,1.426,0,0,1,.4-.071.559.559,0,0,1,.406.136.647.647,0,0,1,.172.377h.031a2.666,2.666,0,0,1,.556-.4A1.264,1.264,0,0,1,90.875,55a1.1,1.1,0,0,1,.9.4,1.635,1.635,0,0,1,.324,1.067" fill="#fff"/>
        <path id="Path_331" data-name="Path 331" d="M96.024,55.624a.992.992,0,0,1-.032.235.632.632,0,0,1-.087.213.567.567,0,0,1-.152.159.523.523,0,0,1-.545-.048.317.317,0,0,1-.1-.23.746.746,0,0,1,.057-.266c.039-.1.078-.195.118-.293a.742.742,0,0,0-.151.025,1.346,1.346,0,0,0-.253.1,2.089,2.089,0,0,0-.339.218,3.089,3.089,0,0,0-.4.388l-.617,2.744H92.8l.559-2.484c.012-.061.031-.153.055-.276a1.579,1.579,0,0,0,.036-.272.41.41,0,0,0-.073-.287.415.415,0,0,0-.29-.073.975.975,0,0,0-.214.029c-.088.019-.155.034-.2.047l.057-.245a4.135,4.135,0,0,1,.528-.2,1.5,1.5,0,0,1,.395-.065.517.517,0,0,1,.436.167.8.8,0,0,1,.13.5h.023a7.962,7.962,0,0,1,.691-.552A.876.876,0,0,1,95.426,55a.9.9,0,0,1,.238.031.452.452,0,0,1,.195.1.487.487,0,0,1,.124.185.894.894,0,0,1,.041.305" fill="#fff"/>
        <path id="Path_332" data-name="Path 332" d="M98.83,55.7a.543.543,0,0,0-.042-.235.311.311,0,0,0-.108-.127.353.353,0,0,0-.146-.058,1.134,1.134,0,0,0-.156-.011,1.086,1.086,0,0,0-.848.5,2.6,2.6,0,0,0-.492,1.257q.267-.039.6-.109a2.2,2.2,0,0,0,.559-.186,1.134,1.134,0,0,0,.473-.422,1.17,1.17,0,0,0,.155-.613m.7.094a1.022,1.022,0,0,1-.255.7,1.716,1.716,0,0,1-.741.464,5.505,5.505,0,0,1-.719.211q-.365.081-.8.134a1.605,1.605,0,0,0,.224.925.751.751,0,0,0,.656.32,1.211,1.211,0,0,0,.677-.192,2.336,2.336,0,0,0,.575-.57l.218.161a2.4,2.4,0,0,1-.765.746,1.813,1.813,0,0,1-.953.279,1.356,1.356,0,0,1-1.036-.379,1.505,1.505,0,0,1-.358-1.076A2.834,2.834,0,0,1,96.4,56.6a2.687,2.687,0,0,1,.443-.8,2.17,2.17,0,0,1,.695-.575A1.913,1.913,0,0,1,98.451,55a1.249,1.249,0,0,1,.817.224.719.719,0,0,1,.266.573" fill="#fff"/>
        <path id="Path_333" data-name="Path 333" d="M101.073,58.981a1.99,1.99,0,0,1-.944-.2.6.6,0,0,1-.377-.526.442.442,0,0,1,.111-.287.339.339,0,0,1,.272-.134.4.4,0,0,1,.247.07.552.552,0,0,1,.147.167,1.241,1.241,0,0,1,.1.238c.029.091.054.166.074.226a.6.6,0,0,0,.159.12.626.626,0,0,0,.293.055.864.864,0,0,0,.626-.207.745.745,0,0,0,.212-.56.5.5,0,0,0-.2-.416,2,2,0,0,0-.593-.286,2.8,2.8,0,0,1-.333-.14,1.264,1.264,0,0,1-.307-.2.971.971,0,0,1-.222-.292.886.886,0,0,1-.083-.4,1.067,1.067,0,0,1,.437-.849A1.65,1.65,0,0,1,101.773,55c.1,0,.207.005.322.015a1.721,1.721,0,0,1,.379.084.825.825,0,0,1,.306.183.407.407,0,0,1,.126.311.442.442,0,0,1-.1.286.341.341,0,0,1-.277.128.421.421,0,0,1-.234-.061.517.517,0,0,1-.153-.165,1.114,1.114,0,0,1-.1-.222c-.026-.079-.053-.157-.084-.234a.658.658,0,0,0-.13-.041.774.774,0,0,0-.153-.012.752.752,0,0,0-.568.2.669.669,0,0,0-.194.478.482.482,0,0,0,.174.4,2.194,2.194,0,0,0,.577.282,2,2,0,0,1,.755.429.823.823,0,0,1,.236.6,1.167,1.167,0,0,1-.448.949,1.725,1.725,0,0,1-1.129.366" fill="#fff"/>
        <path id="Path_334" data-name="Path 334" d="M104.453,58.981a1.986,1.986,0,0,1-.943-.2.6.6,0,0,1-.378-.526.442.442,0,0,1,.111-.287.339.339,0,0,1,.272-.134.4.4,0,0,1,.247.07.556.556,0,0,1,.148.167,1.243,1.243,0,0,1,.1.238c.029.091.054.166.074.226a.6.6,0,0,0,.159.12.626.626,0,0,0,.293.055.863.863,0,0,0,.626-.207.745.745,0,0,0,.213-.56.5.5,0,0,0-.2-.416,2,2,0,0,0-.594-.286,2.731,2.731,0,0,1-.332-.14,1.226,1.226,0,0,1-.307-.2.974.974,0,0,1-.223-.292.9.9,0,0,1-.083-.4,1.068,1.068,0,0,1,.438-.849A1.648,1.648,0,0,1,105.154,55c.1,0,.206.005.322.015a1.725,1.725,0,0,1,.378.084.825.825,0,0,1,.306.183.408.408,0,0,1,.127.311.437.437,0,0,1-.106.286.341.341,0,0,1-.277.128.418.418,0,0,1-.233-.061.52.52,0,0,1-.154-.165,1.114,1.114,0,0,1-.1-.222c-.025-.079-.053-.157-.083-.234a.686.686,0,0,0-.131-.041.774.774,0,0,0-.153-.012.752.752,0,0,0-.568.2.669.669,0,0,0-.194.478.482.482,0,0,0,.174.4,2.21,2.21,0,0,0,.577.282,2.013,2.013,0,0,1,.756.429.826.826,0,0,1,.235.6,1.169,1.169,0,0,1-.447.949,1.729,1.729,0,0,1-1.13.366" fill="#fff"/>
      </g>
    </g>
    <rect id="Rectangle_509" data-name="Rectangle 509" width="31.418" height="0.251" transform="translate(79.42 32.558)" fill="#fff"/>
    <rect id="Rectangle_510" data-name="Rectangle 510" width="31.368" height="0.252" transform="translate(79.47 65.426)" fill="#fff"/>
    <path id="Path_335" data-name="Path 335" d="M87.608,28.037V21.721h-.029l-1.59,4.711H83.918L82.3,21.721h-.044v6.315H79.323v-10.4h4.084l1.546,4.288L86.5,17.638h4.055v10.4Z" fill="#fff"/>
    <g id="Group_613" data-name="Group 613">
      <g id="Group_612" data-name="Group 612" clip-path="url(#clip-path)">
        <path id="Path_336" data-name="Path 336" d="M96.694,23.909H95.045v1.677h1.707a.868.868,0,0,0,.934-.889c0-.438-.35-.788-.992-.788m.058-3.9H95.045v1.634h1.678a.867.867,0,0,0,.948-.9c0-.379-.292-.73-.919-.73m1.211,8.023h-6.17v-10.4h6.126c2.086,0,3.005,1.224,3.005,2.595a2.5,2.5,0,0,1-1.663,2.48v.043a2.368,2.368,0,0,1,1.779,2.334,2.872,2.872,0,0,1-3.077,2.947" fill="#fff"/>
      </g>
    </g>
    <path id="Path_337" data-name="Path 337" d="M107.6,28.037l-1.765-3.252-1.663,3.252h-3.267l3.048-5.382-2.83-5.017h3.486l1.561,2.99,1.517-2.99h3.165l-2.844,5.09,3.048,5.309Z" fill="#fff"/>
  </g>
</svg>
